<svg width="49" height="21" viewBox="0 0 49 21" fill="none" xmlns="http://www.w3.org/2000/svg">
<g opacity="0.2">
<path d="M0 7.84073C0.120322 6.23238 0.701879 4.84334 1.74467 3.67363C2.78746 2.48564 4.17117 1.58094 5.89578 0.959531C7.64045 0.319844 9.60572 0 11.7916 0C13.8772 0 15.692 0.292428 17.2361 0.877285C18.8003 1.44386 20.0136 2.2389 20.8759 3.2624C21.7382 4.2859 22.1693 5.47389 22.1693 6.82637C22.1693 7.86815 21.8585 8.84595 21.2369 9.75979C20.6152 10.6554 19.6426 11.5418 18.319 12.4191C16.9955 13.2781 15.2609 14.1828 13.1151 15.1332L6.91852 17.9569L6.67788 16.5039H22.801V21H0.481288V17.0522L10.1672 12.0901C11.6712 11.3042 12.8344 10.6462 13.6566 10.1162C14.4988 9.56789 15.0904 9.06527 15.4313 8.60836C15.7923 8.15144 15.9728 7.6671 15.9728 7.15535C15.9728 6.58877 15.8023 6.10444 15.4614 5.70235C15.1405 5.28198 14.6492 4.953 13.9874 4.7154C13.3257 4.47781 12.5135 4.35901 11.5509 4.35901C10.3477 4.35901 9.36507 4.5235 8.60303 4.85248C7.84099 5.16319 7.26946 5.58355 6.88844 6.11358C6.50742 6.62533 6.2768 7.20104 6.19659 7.84073H0Z" fill="white"/>
<path d="M45.3903 0.438642V21H39.2238V2.93342H41.1189L29.3875 14.7493L29.3574 12.9674H49V17.1619H24.8153V13.1593L37.5092 0.438642H45.3903Z" fill="white"/>
</g>
</svg>
