<svg width="21" height="21" viewBox="0 0 21 21" fill="none" xmlns="http://www.w3.org/2000/svg">
<path opacity="0.2" d="M10.5 0C13.7054 0 16.1572 0.51023 17.8552 1.53069C19.5532 2.53325 20.4022 3.93862 20.4022 5.7468C20.4022 7.35806 19.6658 8.57545 18.1931 9.39898C16.7203 10.2225 14.6671 10.5806 12.0334 10.4731V9.93606C14.8577 9.72123 17.0582 10.0435 18.6349 10.9028C20.2116 11.7621 21 13.1228 21 14.9847C21 16.9361 20.099 18.4309 18.297 19.4693C16.5124 20.4898 13.9134 21 10.5 21C7.10396 21 4.50495 20.4898 2.70297 19.4693C0.90099 18.4309 0 16.9361 0 14.9847C0 13.1228 0.788366 11.7621 2.3651 10.9028C3.95916 10.0256 6.16832 9.70332 8.99257 9.93606V10.4731C6.35891 10.5806 4.29703 10.2225 2.80693 9.39898C1.33416 8.57545 0.597772 7.35806 0.597772 5.7468C0.597772 3.93862 1.44678 2.53325 3.1448 1.53069C4.84282 0.51023 7.29455 0 10.5 0ZM10.5 16.757C12.146 16.757 13.3936 16.5691 14.2426 16.1931C15.1089 15.7992 15.5421 15.2353 15.5421 14.5013C15.5421 13.7494 15.1089 13.1854 14.2426 12.8095C13.3936 12.4335 12.146 12.2455 10.5 12.2455C8.85396 12.2455 7.59777 12.4335 6.73144 12.8095C5.88243 13.1854 5.45792 13.7494 5.45792 14.5013C5.45792 15.2353 5.88243 15.7992 6.73144 16.1931C7.59777 16.5691 8.85396 16.757 10.5 16.757ZM10.5 8.40537C11.4876 8.40537 12.3106 8.33376 12.9691 8.19054C13.6448 8.02941 14.1559 7.79667 14.5025 7.49233C14.8663 7.17008 15.0483 6.77622 15.0483 6.31074C15.0483 5.64834 14.6584 5.13811 13.8787 4.78005C13.099 4.42199 11.9728 4.24297 10.5 4.24297C9.04455 4.24297 7.92698 4.42199 7.14728 4.78005C6.36757 5.13811 5.97772 5.64834 5.97772 6.31074C5.97772 6.77622 6.15099 7.17008 6.49753 7.49233C6.84406 7.79667 7.3552 8.02941 8.03094 8.19054C8.70668 8.33376 9.5297 8.40537 10.5 8.40537Z" fill="white"/>
</svg>
