<svg width="16" height="14" viewBox="0 0 16 14" fill="none" xmlns="http://www.w3.org/2000/svg">
<path d="M15.7338 6.37062L9.37013 0.245623C9.19867 0.0862349 8.96903 -0.00196054 8.73067 3.30771e-05C8.4923 0.00202669 8.26429 0.0940497 8.09574 0.256282C7.92718 0.418514 7.83157 0.637975 7.8295 0.867397C7.82743 1.09682 7.91906 1.31785 8.08466 1.48287L12.8965 6.11425H0.9091C0.667991 6.11425 0.436758 6.20643 0.266269 6.37053C0.0957795 6.53462 0 6.75718 0 6.98925C0 7.22131 0.0957795 7.44387 0.266269 7.60797C0.436758 7.77206 0.667991 7.86425 0.9091 7.86425H12.8965L8.08466 12.4956C7.99783 12.5763 7.92858 12.6729 7.88093 12.7796C7.83329 12.8864 7.80821 13.0012 7.80716 13.1174C7.80611 13.2336 7.82911 13.3488 7.87482 13.4563C7.92053 13.5639 7.98804 13.6616 8.07339 13.7437C8.15875 13.8259 8.26025 13.8908 8.37198 13.9348C8.4837 13.9788 8.60341 14.001 8.72412 14C8.84483 13.999 8.96413 13.9748 9.07504 13.929C9.18595 13.8831 9.28627 13.8164 9.37013 13.7329L15.7338 7.60787C15.9043 7.44379 16 7.22127 16 6.98925C16 6.75723 15.9043 6.53471 15.7338 6.37062Z" fill="#1F1F1F"/>
</svg>
