<svg width="16" height="14" viewBox="0 0 16 14" fill="none" xmlns="http://www.w3.org/2000/svg">
<path d="M0.266172 6.37062L6.62987 0.245623C6.80133 0.0862349 7.03097 -0.00196054 7.26933 3.30771e-05C7.5077 0.00202669 7.73571 0.0940497 7.90426 0.256282C8.07282 0.418514 8.16843 0.637975 8.1705 0.867397C8.17257 1.09682 8.08094 1.31785 7.91534 1.48287L3.10347 6.11425H15.0909C15.332 6.11425 15.5632 6.20643 15.7337 6.37053C15.9042 6.53462 16 6.75718 16 6.98925C16 7.22131 15.9042 7.44387 15.7337 7.60797C15.5632 7.77206 15.332 7.86425 15.0909 7.86425H3.10347L7.91534 12.4956C8.00217 12.5763 8.07142 12.6729 8.11907 12.7796C8.16671 12.8864 8.19179 13.0012 8.19284 13.1174C8.19389 13.2336 8.17089 13.3488 8.12518 13.4563C8.07947 13.5639 8.01196 13.6616 7.92661 13.7437C7.84125 13.8259 7.73975 13.8908 7.62802 13.9348C7.5163 13.9788 7.39659 14.001 7.27588 14C7.15517 13.999 7.03587 13.9748 6.92496 13.929C6.81405 13.8831 6.71373 13.8164 6.62987 13.7329L0.266172 7.60787C0.0957422 7.44379 0 7.22127 0 6.98925C0 6.75723 0.0957422 6.53471 0.266172 6.37062Z" fill="white"/>
</svg>
