<svg width="14" height="16" viewBox="0 0 14 16" fill="none" xmlns="http://www.w3.org/2000/svg">
<path d="M9.33333 1.6V0.8C9.33333 0.587827 9.41528 0.384344 9.56114 0.234315C9.707 0.0842854 9.90483 0 10.1111 0C10.3174 0 10.5152 0.0842854 10.6611 0.234315C10.8069 0.384344 10.8889 0.587827 10.8889 0.8V1.6C11.714 1.6 12.5053 1.93714 13.0888 2.53726C13.6722 3.13737 14 3.95131 14 4.8V12.8C14 13.6487 13.6722 14.4626 13.0888 15.0627C12.5053 15.6629 11.714 16 10.8889 16H3.11111C2.28599 16 1.49467 15.6629 0.911223 15.0627C0.327777 14.4626 0 13.6487 0 12.8V4.8C0 3.95131 0.327777 3.13737 0.911223 2.53726C1.49467 1.93714 2.28599 1.6 3.11111 1.6V0.8C3.11111 0.587827 3.19306 0.384344 3.33892 0.234315C3.48478 0.0842854 3.68261 0 3.88889 0C4.09517 0 4.293 0.0842854 4.43886 0.234315C4.58472 0.384344 4.66667 0.587827 4.66667 0.8V1.6H9.33333ZM12.4444 8H1.55556V12.8C1.55556 13.2243 1.71944 13.6313 2.01117 13.9314C2.30289 14.2314 2.69855 14.4 3.11111 14.4H10.8889C11.3014 14.4 11.6971 14.2314 11.9888 13.9314C12.2806 13.6313 12.4444 13.2243 12.4444 12.8V8ZM10.8889 3.2V4C10.8889 4.21217 10.8069 4.41566 10.6611 4.56569C10.5152 4.71571 10.3174 4.8 10.1111 4.8C9.90483 4.8 9.707 4.71571 9.56114 4.56569C9.41528 4.41566 9.33333 4.21217 9.33333 4V3.2H4.66667V4C4.66667 4.21217 4.58472 4.41566 4.43886 4.56569C4.293 4.71571 4.09517 4.8 3.88889 4.8C3.68261 4.8 3.48478 4.71571 3.33892 4.56569C3.19306 4.41566 3.11111 4.21217 3.11111 4V3.2C2.69855 3.2 2.30289 3.36857 2.01117 3.66863C1.71944 3.96869 1.55556 4.37565 1.55556 4.8V6.4H12.4444V4.8C12.4444 4.37565 12.2806 3.96869 11.9888 3.66863C11.6971 3.36857 11.3014 3.2 10.8889 3.2Z" fill="#1F1F1F"/>
</svg>
