<svg width="25" height="18" viewBox="0 0 25 18" fill="none" xmlns="http://www.w3.org/2000/svg">
<path d="M24.9307 8.09985L23.721 5.46442C23.6574 5.32593 23.5534 5.20821 23.4216 5.12556C23.2897 5.04291 23.1357 4.99891 22.9784 4.99891H20.9734C20.7581 4.99891 20.5517 5.08118 20.3994 5.22762C20.2472 5.37407 20.1617 5.57269 20.1617 5.77979V7.01078H19.538V5.99792C19.538 5.79081 19.4525 5.59219 19.3002 5.44575C19.148 5.29931 18.9415 5.21703 18.7262 5.21703H16.565V3.08626C16.565 2.87916 16.4795 2.68054 16.3272 2.53409C16.175 2.38765 15.9685 2.30538 15.7532 2.30538H11.7599V1.56177H15.7532C15.9685 1.56177 16.175 1.4795 16.3272 1.33305C16.4795 1.18661 16.565 0.987987 16.565 0.780884C16.565 0.573781 16.4795 0.37516 16.3272 0.228716C16.175 0.0822714 15.9685 4.36438e-09 15.7532 0H6.14323C5.92793 4.36438e-09 5.72146 0.0822714 5.56922 0.228716C5.41699 0.37516 5.33146 0.573781 5.33146 0.780884C5.33146 0.987987 5.41699 1.18661 5.56922 1.33305C5.72146 1.4795 5.92793 1.56177 6.14323 1.56177H10.1366V2.30538H6.14323C5.92793 2.30538 5.72146 2.38765 5.56922 2.53409C5.41699 2.68054 5.33146 2.87916 5.33146 3.08626V3.73533H3.55055C3.33526 3.73533 3.12879 3.8176 2.97655 3.96405C2.82431 4.11049 2.73879 4.30911 2.73879 4.51622V8.70665H1.62353V4.51622C1.62353 4.30911 1.53801 4.11049 1.38577 3.96405C1.23354 3.8176 1.02706 3.73533 0.811766 3.73533C0.596472 3.73533 0.389996 3.8176 0.237761 3.96405C0.085525 4.11049 0 4.30911 0 4.51622V14.4591C0 14.8904 0.363455 15.2399 0.811766 15.2399C1.26008 15.2399 1.62353 14.8904 1.62353 14.4591V10.2684H2.73879V14.4591C2.73879 14.6662 2.82431 14.8648 2.97655 15.0112C3.12879 15.1577 3.33526 15.2399 3.55055 15.2399H6.70443L9.90906 17.8181C10.0551 17.9356 10.2395 18 10.4299 18H18.7264C18.9416 18 19.1481 17.9177 19.3004 17.7713C19.4526 17.6248 19.5381 17.4262 19.5381 17.2191V15.0904H20.1618V16.3214C20.1618 16.5285 20.2473 16.7271 20.3995 16.8736C20.5518 17.02 20.7582 17.1023 20.9735 17.1023H22.9785C23.1359 17.1023 23.2898 17.0583 23.4217 16.9756C23.5535 16.893 23.6575 16.7753 23.7211 16.6368L24.9308 14.0014C24.9764 13.902 25 13.7946 25 13.686V8.41522C25 8.30661 24.9764 8.19919 24.9307 8.09985ZM23.3765 13.5214L22.4496 15.5406H21.7853V14.3096C21.7853 14.1025 21.6998 13.9039 21.5475 13.7575C21.3953 13.611 21.1888 13.5288 20.9735 13.5288H18.7264C18.5111 13.5288 18.3046 13.611 18.1523 13.7575C18.0001 13.9039 17.9146 14.1025 17.9146 14.3096V16.4383H10.7245L7.51987 13.8602C7.37382 13.7426 7.18946 13.6783 6.99904 13.6783H4.36232V5.2971H6.14323C6.24983 5.2971 6.35539 5.2769 6.45388 5.23766C6.55236 5.19842 6.64185 5.1409 6.71723 5.06838C6.79261 4.99587 6.8524 4.90979 6.8932 4.81505C6.93399 4.72031 6.95499 4.61876 6.95499 4.51622V3.86715H14.9416V5.99813C14.9416 6.20523 15.0271 6.40385 15.1793 6.55029C15.3316 6.69674 15.538 6.77901 15.7533 6.77901H17.9146V7.79187C17.9146 7.99897 18.0001 8.19759 18.1523 8.34404C18.3046 8.49048 18.5111 8.57275 18.7264 8.57275H20.9735C21.1888 8.57275 21.3953 8.49048 21.5475 8.34404C21.6998 8.19759 21.7853 7.99897 21.7853 7.79187V6.56078H22.4496L23.3765 8.58004V13.5214Z" fill="#727272"/>
</svg>
