<svg width="29" height="20" viewBox="0 0 29 20" fill="none" xmlns="http://www.w3.org/2000/svg">
<path opacity="0.2" d="M28.5167 8C28.3354 7.6875 26.5465 6.88812 26.5465 6.88812C26.8576 6.72187 27.0703 6.6875 27.0703 6C27.0703 5.25 27.0667 5 26.5833 5H24.9436C24.937 4.985 24.9297 4.96937 24.9231 4.95375C23.8646 2.5625 23.7226 1.95812 22.1439 1.14437C20.0263 0.0549998 16.0563 0 14.5 0C12.9437 0 8.97369 0.0549998 6.8579 1.14437C5.2774 1.95687 5.31667 2.375 4.07873 4.95375C4.07873 4.96062 4.06604 4.97875 4.05456 5H2.41304C1.93333 5 1.92971 5.25 1.92971 6C1.92971 6.6875 2.14237 6.72187 2.45352 6.88812C2.45352 6.88812 0.725 7.75 0.483333 8C0.241667 8.25 0 10 0 13C0 16 0.241667 19 0.241667 19H0.963042C0.963042 19.875 1.0875 20 1.45 20H6.28333C6.64583 20 6.76667 19.875 6.76667 19H22.2333C22.2333 19.875 22.3542 20 22.7167 20H27.6708C27.9125 20 28.0333 19.8125 28.0333 19H28.7583C28.7583 19 29 15.9375 29 13C29 10.0625 28.6979 8.3125 28.5167 8ZM6.60112 10.8087C5.50077 10.9332 4.39479 10.997 3.28787 11C2.05417 11 2.01187 11.0819 1.92487 10.285C1.89215 9.92027 1.9025 9.55277 1.95569 9.19063L1.99375 9H2.175C2.9 9 3.5809 9.03188 4.86656 9.42375C5.52047 9.62673 6.13551 9.94517 6.6845 10.365C6.94792 10.5625 7.00833 10.75 7.00833 10.75L6.60112 10.8087ZM21.5337 15.3087L21.2667 16H7.73333C7.73333 16 7.7569 15.9619 7.43125 15.3012C7.18958 14.8125 7.49167 14.5 7.96956 14.3225C8.89515 13.9775 11.6 13 14.5 13C17.4 13 20.1586 13.8425 21.0552 14.3225C21.3875 14.5 21.8001 14.625 21.5337 15.3125V15.3087ZM6.00662 6.77563C5.81148 6.78725 5.61591 6.78875 5.42058 6.78C5.57827 6.49 5.66587 6.16688 5.81994 5.82938C6.30327 4.76688 6.85608 3.56437 7.84027 3.0575C9.26248 2.325 12.2102 1.995 14.5 1.995C16.7898 1.995 19.7375 2.3225 21.1597 3.0575C22.1439 3.56437 22.6943 4.7675 23.1801 5.82938C23.3353 6.17 23.4217 6.49563 23.5836 6.7875C23.4628 6.79438 23.3239 6.7875 22.9922 6.77563H6.00662ZM27.0147 10.2825C26.8854 11.0625 27.0062 11 25.7121 11C24.6052 10.997 23.4992 10.9332 22.3989 10.8087C22.2267 10.7769 22.1777 10.4763 22.3155 10.365C22.8617 9.94051 23.4776 9.62163 24.1334 9.42375C25.4191 9.03188 26.1429 8.97937 26.8576 9.00563C26.9056 9.00752 26.9513 9.02772 26.9857 9.06234C27.0202 9.09695 27.0411 9.14354 27.0443 9.19312C27.0785 9.55694 27.0686 9.92374 27.0147 10.285V10.2825Z" fill="white"/>
</svg>
