<svg width="11" height="8" viewBox="0 0 11 8" fill="none" xmlns="http://www.w3.org/2000/svg">
<path d="M9.03571 0H1.96429C0.88 0 0 0.896 0 2V6C0 7.104 0.88 8 1.96429 8H9.03571C10.12 8 11 7.104 11 6V2C11 0.896 10.12 0 9.03571 0ZM9.28714 6.256C9.20857 6.332 9.11036 6.372 9.00821 6.372C8.90607 6.372 8.80786 6.332 8.72929 6.256L7.07143 4.564L6.33286 5.32C6.10107 5.552 5.8025 5.668 5.5 5.668C5.1975 5.668 4.89893 5.552 4.66714 5.32L3.92857 4.564L2.27071 6.256C2.19214 6.332 2.09393 6.372 1.99179 6.372C1.88964 6.372 1.79143 6.332 1.71286 6.256C1.55964 6.1 1.55964 5.844 1.71286 5.688L3.37464 4L1.96036 2.564C1.80714 2.408 1.80714 2.152 1.96036 1.996C2.11357 1.84 2.365 1.84 2.51821 1.996L5.225 4.752C5.37821 4.908 5.62179 4.908 5.775 4.752L8.48179 1.996C8.635 1.84 8.88643 1.84 9.03964 1.996C9.19286 2.152 9.19286 2.408 9.03964 2.564L7.62536 4L9.28714 5.688C9.44036 5.844 9.44036 6.1 9.28714 6.256Z" fill="url(#paint0_linear_7826_150)"/>
<defs>
<linearGradient id="paint0_linear_7826_150" x1="2.73188e-08" y1="5.5" x2="9.71947" y2="-0.0684447" gradientUnits="userSpaceOnUse">
<stop stop-color="#9F7437"/>
<stop offset="1" stop-color="#E3D293"/>
</linearGradient>
</defs>
</svg>
