<svg width="18" height="24" viewBox="0 0 18 24" fill="none" xmlns="http://www.w3.org/2000/svg">
<path d="M0.96103 15.6503H7.22254L5.96347 22.8235C5.92493 23.0436 5.95874 23.2708 6.05948 23.4685C6.16022 23.6663 6.32204 23.8232 6.51897 23.914C6.7159 24.0048 6.93653 24.0244 7.14543 23.9695C7.35433 23.9145 7.53941 23.7883 7.67094 23.6111L17.8004 9.95649C17.9099 9.80881 17.9774 9.63225 17.9953 9.4468C18.0131 9.26135 17.9805 9.07442 17.9013 8.90719C17.822 8.73995 17.6992 8.5991 17.5468 8.50057C17.3944 8.40205 17.2185 8.34979 17.039 8.34971H10.7775L12.0365 1.17648C12.0751 0.956385 12.0413 0.729231 11.9405 0.531476C11.8398 0.333721 11.678 0.176832 11.481 0.0859914C11.2841 -0.00484958 11.0635 -0.0243752 10.8546 0.0305482C10.6457 0.0854717 10.4606 0.211659 10.3291 0.388858L0.199589 14.0435C0.0900702 14.1912 0.0225758 14.3678 0.00475061 14.5532C-0.0130746 14.7387 0.0194815 14.9256 0.0987316 15.0928C0.177982 15.26 0.300759 15.4009 0.453159 15.4994C0.605559 15.598 0.781491 15.6502 0.96103 15.6503ZM9.43456 4.86589L8.67889 9.16887C8.65365 9.31273 8.65916 9.46058 8.69505 9.60198C8.73094 9.74338 8.79632 9.87486 8.88657 9.98713C8.97682 10.0994 9.08973 10.1897 9.21732 10.2517C9.34491 10.3136 9.48406 10.3457 9.62492 10.3457H15.085L8.56544 19.1341L9.32111 14.8311C9.34636 14.6873 9.34084 14.5394 9.30495 14.398C9.26906 14.2566 9.20368 14.1251 9.11343 14.0129C9.02318 13.9006 8.91027 13.8103 8.78268 13.7483C8.65509 13.6864 8.51594 13.6543 8.37508 13.6543H2.91501L9.43456 4.86589Z" fill="white"/>
</svg>
