<svg width="9" height="11" viewBox="0 0 9 11" fill="none" xmlns="http://www.w3.org/2000/svg">
<path d="M4.5 0C3.30694 0.00131019 2.16312 0.465313 1.3195 1.29021C0.475876 2.11511 0.00133994 3.23353 0 4.40011C0 6.19041 1.32919 7.6771 2.73713 9.25069C3.18263 9.749 3.64388 10.2644 4.0545 10.7858C4.10705 10.8524 4.17454 10.9064 4.25177 10.9435C4.32901 10.9807 4.41393 11 4.5 11C4.58607 11 4.67099 10.9807 4.74823 10.9435C4.82546 10.9064 4.89295 10.8524 4.9455 10.7858C5.35612 10.2644 5.81737 9.749 6.26288 9.25069C7.67081 7.6771 9 6.19041 9 4.40011C8.99866 3.23353 8.52412 2.11511 7.6805 1.29021C6.83688 0.465313 5.69306 0.00131019 4.5 0ZM4.5 6.05016C4.16624 6.05016 3.83998 5.95338 3.56248 5.77207C3.28497 5.59077 3.06868 5.33306 2.94095 5.03156C2.81323 4.73005 2.77981 4.39828 2.84492 4.07821C2.91004 3.75813 3.07076 3.46412 3.30676 3.23336C3.54276 3.0026 3.84344 2.84544 4.17079 2.78178C4.49813 2.71811 4.83743 2.75079 5.14578 2.87567C5.45413 3.00056 5.71768 3.21205 5.9031 3.4834C6.08853 3.75475 6.1875 4.07377 6.1875 4.40011C6.1875 4.83773 6.00971 5.25743 5.69324 5.56687C5.37678 5.87631 4.94755 6.05016 4.5 6.05016Z" fill="#5A5A5A"/>
</svg>
