<svg width="14" height="18" viewBox="0 0 14 18" fill="none" xmlns="http://www.w3.org/2000/svg">
<path d="M7 8.35714C9.39997 8.35714 11.3455 6.48633 11.3455 4.17857C11.3455 1.87081 9.39997 0 7 0C4.60003 0 2.65447 1.87081 2.65447 4.17857C2.65447 6.48633 4.60003 8.35714 7 8.35714Z" fill="white"/>
<path d="M0.000359376 15.0879C-0.00632605 15.2807 0.0805844 15.4736 0.234349 15.6021C2.13301 17.145 4.53308 18 7 18C9.46692 18 11.867 17.145 13.7657 15.6021C13.9194 15.4736 14.0063 15.2807 13.9996 15.0879C13.8994 12.3943 12.1478 10.0221 9.54046 9.045C9.38815 8.98826 9.21971 8.98598 9.0658 9.03857C7.75545 9.495 6.24455 9.495 4.9342 9.03857C4.78029 8.98598 4.61185 8.98826 4.45954 9.045C1.85222 10.0221 0.100641 12.3943 0.000359376 15.0879Z" fill="white"/>
</svg>
