<svg width="19" height="18" viewBox="0 0 19 18" fill="none" xmlns="http://www.w3.org/2000/svg">
<g opacity="0.3">
<path d="M13.7968 10.7304L13.79 10.7866C12.1408 9.96464 11.9683 9.85515 11.7553 10.1746C11.6075 10.3959 11.177 10.8976 11.0473 11.0461C10.916 11.1924 10.7855 11.2036 10.5628 11.1024C10.3378 10.9899 9.6155 10.7536 8.7605 9.98864C8.0945 9.3924 7.6475 8.66117 7.5155 8.43617C7.29575 8.05668 7.7555 8.00268 8.174 7.21069C8.249 7.0532 8.21075 6.92945 8.15525 6.8177C8.099 6.7052 7.65125 5.60272 7.46375 5.16323C7.28375 4.72524 7.0985 4.78074 6.95975 4.78074C6.52775 4.74324 6.212 4.74924 5.93375 5.03873C4.72325 6.36921 5.0285 7.74168 6.06425 9.20116C8.09975 11.8651 9.18425 12.3556 11.1673 13.0366C11.7028 13.2068 12.191 13.1828 12.5773 13.1273C13.0078 13.0591 13.9025 12.5866 14.0893 12.0579C14.2805 11.5291 14.2805 11.0904 14.2243 10.9891C14.1688 10.8879 14.0218 10.8316 13.7968 10.7304Z" fill="white"/>
<path d="M16.0565 2.58703C10.2898 -2.98762 0.746004 1.05556 0.742254 8.91991C0.742254 10.4919 1.154 12.0249 1.9385 13.3786L0.666504 18L5.41775 16.761C11.3465 19.9635 18.6635 15.711 18.6665 8.92441C18.6665 6.54246 17.7365 4.30075 16.0453 2.61628L16.0565 2.58703ZM17.168 8.89966C17.1635 14.6243 10.8793 18.1995 5.909 15.2776L5.639 15.1171L2.8265 15.8483L3.58025 13.1146L3.401 12.8333C0.308004 7.90968 3.8615 1.4748 9.7205 1.4748C11.711 1.4748 13.5793 2.25103 14.9863 3.65726C16.3925 5.05148 17.168 6.9197 17.168 8.89966Z" fill="white"/>
</g>
</svg>
