<svg width="22" height="18" viewBox="0 0 22 18" fill="none" xmlns="http://www.w3.org/2000/svg">
<path d="M12.6157 0H3.94407C3.55043 0 3.2313 0.30606 3.2313 0.683576C3.2313 1.06109 3.55043 1.36715 3.94407 1.36715H7.6491C6.86883 1.83594 6.16415 2.41152 5.55737 3.07568H0.712767C0.319129 3.07572 0 3.38182 0 3.75934C0 4.13686 0.319129 4.44292 0.712767 4.44292H4.52625C3.70391 5.7804 3.23126 7.33818 3.23126 9.00002C3.23126 10.9337 3.87059 12.7269 4.95693 14.1955H2.93456C2.54092 14.1955 2.22179 14.5016 2.22179 14.8791C2.22179 15.2566 2.54092 15.5627 2.93456 15.5627H6.201C6.64648 15.9635 7.13145 16.3219 7.6491 16.6328H0.786287C0.392649 16.6328 0.0735197 16.9389 0.0735197 17.3164C0.0735197 17.6939 0.392649 18 0.786287 18H12.6157C17.7903 18 22 13.9626 22 8.99998C22 4.03738 17.7902 0 12.6157 0ZM12.6157 16.6329C8.22716 16.6329 4.65688 13.2089 4.65688 9.00006C4.65688 4.79125 8.22716 1.36719 12.6157 1.36719C17.0041 1.36719 20.5744 4.79125 20.5744 9.00002C20.5744 13.2088 17.0042 16.6329 12.6157 16.6329Z" fill="#727272"/>
<path d="M12.6157 3.41653C9.40542 3.41653 6.79369 5.9213 6.79369 9.00007C6.79369 10.8361 7.72263 12.4678 9.15332 13.4861C9.16643 13.4967 9.17945 13.5074 9.19358 13.5172C9.20948 13.5283 9.22577 13.5386 9.24222 13.5483C10.1946 14.1998 11.3593 14.5836 12.6157 14.5836C13.8721 14.5836 15.0367 14.1998 15.9891 13.5483C16.0056 13.5386 16.0218 13.5283 16.0377 13.5172C16.0518 13.5074 16.0649 13.4966 16.078 13.4861C17.5087 12.4678 18.4376 10.8361 18.4376 9.00007C18.4376 5.92134 15.8259 3.41653 12.6157 3.41653ZM13.3284 4.83944C14.7194 5.05789 15.8929 5.90432 16.5206 7.06448L14.6748 7.63968C14.3542 7.19466 13.8811 6.85844 13.3285 6.70056V4.83944H13.3284ZM13.6918 9.00003C13.6918 9.56913 13.2091 10.0321 12.6157 10.0321C12.0223 10.0321 11.5395 9.56917 11.5395 9.00003C11.5395 8.43093 12.0223 7.96795 12.6157 7.96795C13.2091 7.96795 13.6918 8.43093 13.6918 9.00003ZM11.9029 4.83944V6.70056C11.3501 6.85844 10.8771 7.19466 10.5565 7.63968L8.71074 7.06448C9.33852 5.90432 10.512 5.05785 11.9029 4.83944ZM9.49041 11.9624C8.70503 11.2004 8.21926 10.1536 8.21926 9.00003C8.21926 8.78401 8.23637 8.57174 8.26919 8.36438L10.1155 8.93974C10.115 8.95985 10.1139 8.9798 10.1139 9.00003C10.1139 9.54795 10.3068 10.0533 10.6304 10.4576L9.49041 11.9624ZM12.6157 13.2164C11.9066 13.2164 11.2364 13.0544 10.6427 12.7672L11.783 11.2622C12.0436 11.3507 12.3238 11.3994 12.6157 11.3994C12.9076 11.3994 13.1877 11.3507 13.4484 11.2622L14.5886 12.7672C13.9949 13.0543 13.3247 13.2164 12.6157 13.2164ZM15.7409 11.9624L14.6009 10.4577C14.9245 10.0533 15.1174 9.54799 15.1174 9.00007C15.1174 8.97984 15.1164 8.95989 15.1158 8.93978L16.9621 8.36442C16.9954 8.5748 17.0121 8.78729 17.012 9.00007C17.0121 10.1536 16.5263 11.2003 15.7409 11.9624Z" fill="#727272"/>
</svg>
