<svg width="22" height="14" viewBox="0 0 22 14" fill="none" xmlns="http://www.w3.org/2000/svg">
<path d="M21.9203 7.88462C21.7553 6.11669 21.4835 5.77237 21.3808 5.64287C21.1447 5.34362 20.767 5.14806 20.3673 4.94287C20.3447 4.93147 20.3252 4.9152 20.3103 4.89536C20.2954 4.87552 20.2855 4.85265 20.2815 4.82856C20.2774 4.80446 20.2793 4.77979 20.287 4.75651C20.2946 4.73322 20.3078 4.71195 20.3256 4.69438C20.3996 4.62273 20.4565 4.53663 20.4923 4.442C20.5282 4.34737 20.5421 4.24645 20.5332 4.14619C20.516 3.96839 20.4294 3.80327 20.2905 3.68358C20.1517 3.56389 19.9708 3.49836 19.7837 3.5H19.0686C19.038 3.50017 19.0074 3.50207 18.9769 3.50569C18.9561 3.49705 18.9344 3.49016 18.9123 3.48513C18.4887 2.63069 17.9089 1.46081 16.7069 0.889875C14.9242 0.0437498 11.6402 0 10.9985 0C10.3567 0 7.07274 0.0437499 5.29231 0.888562C4.09038 1.4595 3.5105 2.62938 3.08694 3.48381L3.08327 3.49081C3.06215 3.49365 3.0414 3.49864 3.02139 3.50569C2.99097 3.50207 2.96036 3.50017 2.92971 3.5H2.21323C2.02615 3.49836 1.84526 3.56389 1.70644 3.68358C1.56761 3.80327 1.48098 3.96839 1.46374 4.14619C1.4556 4.24622 1.47019 4.34675 1.5065 4.44091C1.54281 4.53506 1.6 4.62063 1.67415 4.69175C1.69189 4.70933 1.70511 4.7306 1.71276 4.75388C1.72041 4.77717 1.72229 4.80183 1.71824 4.82593C1.7142 4.85003 1.70434 4.8729 1.68945 4.89274C1.67456 4.91258 1.65504 4.92884 1.63244 4.94025C1.23271 5.14675 0.853155 5.34231 0.618912 5.64025C0.51623 5.7715 0.244857 6.11406 0.0793742 7.882C-0.0123059 8.87687 -0.026058 9.90675 0.045911 10.57C0.196725 11.9481 0.479558 12.7811 0.491477 12.8157C0.534877 12.9415 0.614768 13.0529 0.721873 13.1371C0.828978 13.2213 0.958904 13.2747 1.09657 13.2912V13.3C1.09657 13.4857 1.17384 13.6637 1.31139 13.795C1.44893 13.9263 1.63549 14 1.83001 14H4.39705C4.59157 14 4.77813 13.9263 4.91567 13.795C5.05322 13.6637 5.13049 13.4857 5.13049 13.3C5.52518 13.3 5.79976 13.2326 6.09084 13.1609C6.5111 13.0528 6.94066 12.9809 7.37436 12.9461C8.77294 12.8188 10.1637 12.775 10.9985 12.775C11.8163 12.775 13.2685 12.8188 14.6694 12.9461C15.1048 12.981 15.536 13.0532 15.9579 13.1617C16.2366 13.23 16.5011 13.293 16.8674 13.2996C16.8674 13.4852 16.9447 13.6633 17.0822 13.7945C17.2198 13.9258 17.4063 13.9996 17.6008 13.9996H20.1679C20.3624 13.9996 20.5489 13.9258 20.6865 13.7945C20.824 13.6633 20.9013 13.4852 20.9013 13.2996V13.2943C21.0393 13.2781 21.1696 13.2248 21.2771 13.1406C21.3845 13.0564 21.4647 12.9448 21.5082 12.8187C21.5202 12.7842 21.803 11.9512 21.9538 10.5731C22.0258 9.90938 22.0129 8.88125 21.9203 7.88462ZM4.41264 4.08231C4.77936 3.33856 5.19879 2.49681 5.94553 2.142C7.0246 1.62925 9.26114 1.39825 10.9985 1.39825C12.7358 1.39825 14.9724 1.6275 16.0514 2.142C16.7982 2.49681 17.2158 3.339 17.5843 4.08231L17.6302 4.17725C17.657 4.2313 17.6688 4.291 17.6646 4.35066C17.6603 4.41032 17.6402 4.46795 17.606 4.51805C17.5718 4.56815 17.5247 4.60905 17.4692 4.63686C17.4138 4.66466 17.3517 4.67844 17.2891 4.67687C15.7658 4.6375 12.557 4.5115 10.9985 4.5115C9.43992 4.5115 6.23111 4.64056 4.70555 4.67994C4.64292 4.6815 4.58092 4.66772 4.52545 4.63992C4.46998 4.61211 4.4229 4.57121 4.3887 4.52111C4.3545 4.47101 4.33432 4.41338 4.33008 4.35372C4.32585 4.29406 4.3377 4.23436 4.3645 4.18031C4.38055 4.14794 4.39751 4.11512 4.41264 4.08231ZM4.95951 7.56612C4.17097 7.6567 3.37739 7.70141 2.58316 7.7C2.09725 7.7 1.59622 7.56875 1.50317 7.15575C1.43945 6.87794 1.44633 6.72175 1.48071 6.56469C1.50958 6.43125 1.55542 6.33413 1.78462 6.3C2.38055 6.2125 2.7138 6.32231 3.68928 6.59662C4.33608 6.77819 4.80274 7.02012 5.06861 7.21175C5.202 7.30625 5.13095 7.553 4.95951 7.56612ZM15.1076 11.1536C14.5043 11.2192 13.2978 11.1952 11.0122 11.1952C8.72665 11.1952 7.52059 11.2192 6.91734 11.1536C6.29483 11.0876 5.50134 10.5258 6.04317 10.0253C6.40393 9.69544 7.24555 9.44869 8.36634 9.31C9.48713 9.17131 9.96158 9.1 11.0076 9.1C12.0537 9.1 12.48 9.14375 13.649 9.31044C14.8179 9.47713 15.7012 9.72694 15.9721 10.0258C16.4663 10.5612 15.7296 11.0841 15.1076 11.1562V11.1536ZM20.4938 7.15531C20.4021 7.57006 19.8979 7.69956 19.4138 7.69956C18.6044 7.69974 17.7956 7.65504 16.9916 7.56569C16.8513 7.553 16.7862 7.31806 16.9284 7.21131C17.1901 7.01487 17.6618 6.77775 18.3077 6.59619C19.2832 6.32188 19.8456 6.21206 20.3288 6.3035C20.4466 6.32581 20.5089 6.44656 20.5163 6.52225C20.5486 6.733 20.541 6.94757 20.4938 7.15575V7.15531Z" fill="white"/>
</svg>
