<svg width="36" height="10" viewBox="0 0 36 10" fill="none" xmlns="http://www.w3.org/2000/svg">
<g opacity="0.6">
<path d="M28.0797 7.59999C28.0797 6.05725 29.3349 4.80669 30.8834 4.80669C32.432 4.80669 33.6872 6.05725 33.6872 7.59999C33.6872 7.78203 33.6691 7.95985 33.6358 8.13219H35.4698C35.4698 8.13219 36.1915 6.33805 35.9509 4.76811C35.7103 3.19817 21.4903 2.15158 21.4903 2.15158L17.5444 0.343426C17.0276 0.1066 16.4637 -0.0105568 15.895 0.000746723L10.0281 0.117116C9.49636 0.127684 8.9727 0.249159 8.49092 0.47371L6.81595 1.25446L1.60377 2.67483L0.240597 3.94572L0.481193 4.61854L0 5.21662L1.04248 7.3098L3.25557 8.01909C3.2346 7.88037 3.22406 7.74028 3.22404 7.59999C3.22404 6.05725 4.47939 4.80669 6.02782 4.80669C7.57636 4.80669 8.83161 6.05725 8.83161 7.59999C8.83161 7.78203 8.81352 7.95985 8.78019 8.13219H28.1311C28.097 7.95683 28.0797 7.77862 28.0797 7.59999ZM12.368 3.01824L10.4672 2.95542L10.4788 2.60758L12.3795 2.6704L12.368 3.01824ZM9.9672 2.07369C9.92634 2.07215 9.88636 2.06135 9.85033 2.0421C9.81429 2.02285 9.78314 1.99566 9.75924 1.96261C9.73534 1.92955 9.71934 1.8915 9.71243 1.85134C9.70553 1.81119 9.70791 1.77 9.71941 1.7309L9.98328 0.832727C9.99935 0.778032 10.0325 0.729872 10.078 0.695255C10.1234 0.660637 10.1787 0.641369 10.2359 0.640253L15.9056 0.527784C16.3946 0.517273 16.8795 0.617997 17.3235 0.822292L20.9558 2.48678L9.9672 2.07369Z" fill="black"/>
<path d="M8.43696 7.59998C8.43696 7.52493 8.43316 7.45083 8.42638 7.37767C8.3137 6.15642 7.28329 5.19985 6.02814 5.19985C4.77268 5.19985 3.74216 6.15632 3.62958 7.37767C3.62251 7.45157 3.61891 7.52575 3.61879 7.59998C3.61879 8.92537 4.69735 10 6.02814 10C7.35851 10 8.43696 8.92548 8.43696 7.59998ZM6.02814 9.15811C5.16563 9.15811 4.46395 8.45916 4.46395 7.59998C4.46395 7.55444 4.46627 7.50712 4.47114 7.45504C4.54541 6.6492 5.21473 6.04185 6.02825 6.04185C6.84145 6.04185 7.51076 6.64931 7.58504 7.45483C7.58969 7.50564 7.59191 7.55339 7.59191 7.59998C7.59181 8.45916 6.89044 9.15811 6.02814 9.15811Z" fill="black"/>
<path d="M6.74686 7.59998C6.74686 7.57921 6.7457 7.55655 6.74348 7.53189C6.70941 7.16233 6.40184 6.88374 6.02814 6.88374C5.84881 6.88276 5.67568 6.949 5.5431 7.0693C5.41052 7.18961 5.32821 7.35518 5.31249 7.53315C5.31023 7.55539 5.30903 7.57773 5.30889 7.60008C5.30889 7.99505 5.63159 8.31633 6.02804 8.31633C6.21863 8.31605 6.40134 8.24048 6.53609 8.10619C6.67084 7.97191 6.74664 7.78986 6.74686 7.59998ZM33.2925 7.59998C33.2925 7.52493 33.2887 7.45083 33.2819 7.37767C33.1692 6.15642 32.1388 5.19985 30.8837 5.19985C29.6282 5.19985 28.5977 6.15632 28.4851 7.37767C28.4781 7.45157 28.4745 7.52575 28.4743 7.59998C28.4743 8.92537 29.5529 10 30.8837 10C32.214 10 33.2925 8.92548 33.2925 7.59998ZM30.8837 9.15811C30.0211 9.15811 29.3195 8.45916 29.3195 7.59998C29.3195 7.55444 29.3218 7.50712 29.3267 7.45504C29.4009 6.6492 30.0702 6.04185 30.8838 6.04185C31.697 6.04185 32.3662 6.64931 32.4406 7.45483C32.4452 7.50564 32.4475 7.55339 32.4475 7.59998C32.4474 8.45916 31.746 9.15811 30.8837 9.15811Z" fill="black"/>
<path d="M31.6024 7.59998C31.6024 7.57921 31.6012 7.55655 31.599 7.53189C31.5649 7.16233 31.2574 6.88374 30.8837 6.88374C30.7043 6.88276 30.5312 6.949 30.3986 7.0693C30.266 7.18961 30.1837 7.35518 30.168 7.53315C30.1657 7.55539 30.1645 7.57773 30.1644 7.60008C30.1644 7.99505 30.4871 8.31633 30.8836 8.31633C31.0741 8.31605 31.2569 8.24048 31.3916 8.10619C31.5264 7.97191 31.6022 7.78986 31.6024 7.59998Z" fill="black"/>
</g>
</svg>
