<svg width="33" height="12" viewBox="0 0 33 12" fill="none" xmlns="http://www.w3.org/2000/svg">
<g opacity="0.6">
<path d="M0.56053 8.36079C0.134448 8.70731 0.239385 9.68058 0.875135 9.71769L0.880324 9.74016H2.86044V10.0558H3.48321V9.73017C3.48321 8.29393 4.60068 7.12554 5.97431 7.12554C7.34794 7.12554 8.46541 8.29393 8.46541 9.73017V10.0558H9.08818V9.74016H24.0333V10.0558H24.6561V9.73017C24.6561 8.29393 25.7736 7.12554 27.1472 7.12554C28.5208 7.12554 29.6383 8.29393 29.6383 9.73017V10.0558H30.2611V9.74016H32.6088L32.6143 9.67613C33.0869 9.47774 33.1251 8.65033 32.7293 8.34961L32.7745 7.82836L32.137 6.45876C29.1621 4.4342 23.5361 3.62242 23.5361 3.62242L19.6526 1.08714C19.0289 0.679968 18.3171 0.443875 17.5829 0.400708L10.9105 0.0084935C10.0917 -0.0425051 9.27476 0.136851 8.54471 0.5279L5.24151 2.95672C5.07298 3.08064 4.87532 3.15414 4.66981 3.16932L1.46469 3.6883C1.21699 3.71767 0.981622 3.81704 0.783865 3.97574C0.586108 4.13444 0.433436 4.34648 0.342247 4.58906L0.0951092 5.24652C-0.00816595 5.52126 -0.0278838 5.82263 0.0386443 6.10952L0.56053 8.36079ZM8.52997 4.55162L6.66466 4.51016L6.67192 4.15192L8.53724 4.19338L8.52997 4.55162ZM16.5986 4.72157L14.7333 4.68012L14.7406 4.32187L16.6059 4.36333L16.5986 4.72157ZM19.3779 1.5474L22.3557 3.49143L22.2817 3.65096C22.2453 3.72933 22.1881 3.79503 22.1168 3.84016C22.0456 3.8853 21.9633 3.90793 21.8801 3.90535L14.2822 3.67061L13.8788 0.726395L17.5539 0.942471C18.2009 0.980426 18.8282 1.18849 19.3779 1.5474ZM6.08018 3.00349L8.81292 0.994129C9.37954 0.697883 10.0042 0.543295 10.6378 0.542552C10.7181 0.542552 10.7996 0.545048 10.8799 0.550148L13.2649 0.690364L13.3584 3.64217L6.20007 3.421C5.98895 3.41448 5.90736 3.13058 6.08018 3.00349Z" fill="black"/>
<path d="M8.1453 9.73017C8.1453 9.6592 8.14188 9.58909 8.13586 9.51996C8.03435 8.36491 7.10579 7.46034 5.97462 7.46034C4.84335 7.46034 3.91469 8.36502 3.81318 9.51996C3.80683 9.58983 3.80357 9.65998 3.80342 9.73017C3.80342 10.9837 4.77536 12 5.97452 12C7.17346 12 8.1453 10.9838 8.1453 9.73017ZM5.97462 11.2039C5.1974 11.2039 4.56497 10.5428 4.56497 9.73028C4.56497 9.6872 4.56705 9.64238 4.57141 9.59321C4.63835 8.83114 5.24151 8.25671 5.97452 8.25671C6.70732 8.25671 7.31047 8.83125 7.37742 9.593C7.38157 9.64107 7.38365 9.68622 7.38365 9.73028C7.38375 10.5427 6.75164 11.2039 5.97462 11.2039Z" fill="black"/>
<path d="M6.6222 9.73017C6.6222 9.71053 6.62117 9.68904 6.61919 9.66571C6.60485 9.49763 6.53063 9.34131 6.41124 9.22776C6.29185 9.11421 6.13601 9.0517 5.97462 9.05264C5.81303 9.05169 5.657 9.11433 5.53753 9.2281C5.41806 9.34188 5.34388 9.49848 5.32974 9.66679C5.32772 9.68782 5.32665 9.70893 5.32652 9.73006C5.32674 9.90969 5.3951 10.0819 5.5166 10.2089C5.6381 10.3359 5.80282 10.4073 5.97462 10.4075C6.14635 10.4073 6.31098 10.3359 6.43239 10.2089C6.5538 10.0819 6.62207 9.90973 6.6222 9.73017ZM29.3181 9.73017C29.3181 9.6592 29.3147 9.58909 29.3086 9.51996C29.2071 8.36491 28.2786 7.46034 27.1474 7.46034C26.0161 7.46034 25.0875 8.36502 24.986 9.51996C24.9796 9.58983 24.9764 9.65998 24.9762 9.73017C24.9762 10.9837 25.9481 12 27.1473 12C28.3464 12 29.3181 10.9838 29.3181 9.73017ZM27.1474 11.2039C26.3702 11.2039 25.7378 10.5428 25.7378 9.73028C25.7378 9.6872 25.7398 9.64238 25.7442 9.59321C25.8111 8.83114 26.4143 8.25671 27.1473 8.25671C27.8801 8.25671 28.4833 8.83125 28.5502 9.593C28.5544 9.64107 28.5564 9.68622 28.5564 9.73028C28.5565 10.5427 27.9245 11.2039 27.1474 11.2039Z" fill="black"/>
<path d="M27.7951 9.73017C27.7951 9.71053 27.7941 9.68904 27.7921 9.66571C27.7777 9.49762 27.7035 9.34131 27.5841 9.22776C27.4647 9.1142 27.3089 9.0517 27.1475 9.05264C26.9859 9.05169 26.8299 9.11433 26.7104 9.2281C26.5909 9.34188 26.5168 9.49848 26.5026 9.66679C26.5006 9.68782 26.4995 9.70893 26.4994 9.73006C26.4996 9.90969 26.568 10.0819 26.6895 10.2089C26.811 10.3359 26.9757 10.4073 27.1475 10.4075C27.3192 10.4073 27.4839 10.3359 27.6053 10.2089C27.7267 10.0819 27.795 9.90973 27.7951 9.73017Z" fill="black"/>
</g>
</svg>
