<svg width="53" height="10" viewBox="0 0 53 10" fill="none" xmlns="http://www.w3.org/2000/svg">
<g opacity="0.6">
<path d="M52.7134 6.23773H52.5666C52.5211 4.99921 52.3463 3.01897 51.6942 2.94238V2.76955C51.6955 2.76955 51.6967 2.77017 51.6979 2.77017C51.812 2.77017 51.812 2.04652 51.6979 2.04652C51.5839 2.04652 51.4914 2.2085 51.4914 2.4083C51.4914 2.53168 51.5268 2.64035 51.5807 2.70566V2.93921C50.7402 2.93004 47.9443 2.78048 46.3104 2.70187C45.6724 2.6712 44.7447 2.45765 44.2088 2.08318L42.2254 0.621948C41.6445 0.216013 40.9669 6.59356e-06 40.2746 0H9.70531C9.41106 0 9.1209 0.0729734 8.85699 0.21328C7.9789 0.680116 5.17146 2.02254 4.16902 2.44196C3.93067 2.54167 3.68266 2.61212 3.42968 2.65198L1.01035 3.13292C0.84722 3.15865 0.697804 3.24581 0.588588 3.37894C0.479371 3.51208 0.417408 3.6826 0.413679 3.86028L0.363561 6.23773H0.286544C-0.0955146 6.23773 -0.0955146 7.73518 0.286544 7.73518H2.83725C2.83684 7.7573 2.8357 7.77925 2.8357 7.80146V8.06585H3.32625V7.80146C3.32625 6.38218 4.39737 5.22764 5.71402 5.22764C7.03058 5.22764 8.1017 6.38226 8.1017 7.80146V8.06585H8.59225V7.80146C8.59225 7.77925 8.59111 7.7573 8.5907 7.73518H45.1296C45.1292 7.7573 45.128 7.77925 45.128 7.80146V8.06585H45.6186V7.80146C45.6186 6.38218 46.6897 5.22764 48.0063 5.22764C49.3229 5.22764 50.394 6.38226 50.394 7.80146V8.06585H50.8846V7.80146C50.8846 7.77925 50.8834 7.7573 50.883 7.73518H52.7136C53.0955 7.73518 53.0955 6.23773 52.7134 6.23773ZM52.0608 5.85902L51.6239 4.85194H51.9699C52.0085 5.15943 52.0397 5.50033 52.0608 5.85902ZM51.6108 3.46826C51.7335 3.5987 51.8458 4.01045 51.9313 4.57353H51.5032L51.0176 3.45434C51.2701 3.46245 51.4737 3.46738 51.6108 3.46826ZM8.12999 3.51868C8.12999 3.41459 8.20897 3.32946 8.30552 3.32946H9.77203C9.86859 3.32946 9.94757 3.41459 9.94757 3.51868C9.94757 3.62276 9.86859 3.70789 9.77203 3.70789H8.30552C8.25901 3.70773 8.21445 3.68774 8.18157 3.65229C8.14868 3.61684 8.13014 3.56881 8.12999 3.51868ZM14.1312 2.81133L14.3745 0.687431H35.4014L35.6447 2.81133H14.1312ZM38.1552 3.51868C38.1552 3.41459 38.2342 3.32946 38.3308 3.32946H39.7973C39.8938 3.32946 39.9728 3.41459 39.9728 3.51868C39.9728 3.62276 39.8938 3.70789 39.7973 3.70789H38.3308C38.2843 3.70776 38.2397 3.68777 38.2068 3.65232C38.1739 3.61686 38.1554 3.56882 38.1552 3.51868ZM40.2746 0.687431C40.8722 0.687431 41.4571 0.873918 41.9586 1.22424L43.5969 2.52692C43.7486 2.63291 43.9067 2.72789 44.0701 2.81124H36.2196L35.7581 0.687431H40.2746ZM9.081 0.842455C9.27541 0.740013 9.48901 0.68698 9.7054 0.687431H14.0178L13.5563 2.81133H7.59766C7.27977 2.81133 6.9707 2.6987 6.71801 2.49079L6.6419 2.42822C7.52636 1.88805 8.43732 1.18309 9.081 0.842455Z" fill="black"/>
<path d="M7.74457 7.59787C7.64916 6.47912 6.77679 5.60291 5.71409 5.60291C4.65123 5.60291 3.7787 6.47912 3.68337 7.59787C3.67756 7.66485 3.67421 7.73271 3.67421 7.80146C3.67421 9.01565 4.58738 10 5.71401 10C6.8404 10 7.7534 9.01556 7.7534 7.80146C7.75335 7.73348 7.75041 7.66555 7.74457 7.59787ZM5.71409 9.22884C4.98382 9.22884 4.38976 8.58848 4.38976 7.80146C4.38976 7.75977 4.39173 7.71632 4.39581 7.66864C4.45869 6.93045 5.02536 6.37407 5.71409 6.37407C6.40258 6.37407 6.96917 6.93053 7.03212 7.66846C7.03605 7.715 7.03801 7.75871 7.03801 7.80146C7.03801 8.58848 6.44412 9.22884 5.71409 9.22884Z" fill="black"/>
<path d="M5.71409 7.14531C5.56227 7.14442 5.41568 7.20509 5.30344 7.3153C5.19119 7.4255 5.12149 7.57717 5.10818 7.7402C5.10628 7.76059 5.10527 7.78106 5.10515 7.80154C5.10515 8.16333 5.37831 8.45769 5.71409 8.45769C6.04963 8.45769 6.32254 8.16333 6.32254 7.80154C6.32254 7.78251 6.32156 7.76171 6.31968 7.73915C6.2909 7.40054 6.0305 7.14531 5.71409 7.14531ZM50.0369 7.59787C49.9415 6.47912 49.0691 5.60291 48.0064 5.60291C46.9436 5.60291 46.071 6.47912 45.9757 7.59787C45.9699 7.66485 45.9665 7.73271 45.9665 7.80146C45.9665 9.01565 46.8797 10 48.0063 10C49.1327 10 50.0457 9.01556 50.0457 7.80146C50.0457 7.73348 50.0427 7.66555 50.0369 7.59787ZM48.0064 9.22884C47.2761 9.22884 46.6821 8.58848 46.6821 7.80146C46.6821 7.75977 46.684 7.71632 46.6881 7.66864C46.751 6.93045 47.3178 6.37407 48.0064 6.37407C48.6949 6.37407 49.2615 6.93053 49.3245 7.66846C49.3284 7.715 49.3303 7.75871 49.3303 7.80146C49.3303 8.58848 48.7364 9.22884 48.0064 9.22884Z" fill="black"/>
<path d="M48.0064 7.14531C47.8546 7.14441 47.708 7.20509 47.5958 7.3153C47.4835 7.4255 47.4138 7.57717 47.4005 7.7402C47.3986 7.76059 47.3976 7.78106 47.3975 7.80154C47.3975 8.16333 47.6706 8.45769 48.0064 8.45769C48.342 8.45769 48.6149 8.16333 48.6149 7.80154C48.6149 7.78251 48.6139 7.76171 48.612 7.73915C48.5831 7.40054 48.3227 7.14531 48.0064 7.14531Z" fill="black"/>
</g>
</svg>
