<svg width="36" height="10" viewBox="0 0 36 10" fill="none" xmlns="http://www.w3.org/2000/svg">
<g opacity="0.6">
<path d="M27.0478 7.4907C27.0478 5.8618 28.3186 4.54129 29.8862 4.54129C31.4539 4.54129 32.7247 5.8618 32.7247 7.4907C32.7247 7.88324 32.6502 8.25749 32.5163 8.59992H36L35.9186 8.17701L34.8989 7.30285L34.4691 5.00851C33.5667 4.25299 20.8934 0.16779 19.3754 0.104169C17.8027 0.0382054 15.8304 -0.0261961 14.7926 0.0108599C12.897 0.0786098 6.23741 1.90819 6.23741 1.90819L3.72141 2.20955L3.6227 1.69791L5.07442 1.8573V0.800085L0.0678866 0.250273V1.30771L1.36622 1.45035L1.60737 2.69965L0.428051 5.49972L0 5.97408L0.611517 8.59992H1.85421C1.71635 8.24767 1.64558 7.87096 1.64582 7.4907C1.64582 5.8618 2.91666 4.54129 4.48428 4.54129C6.0519 4.54129 7.32273 5.8618 7.32273 7.4907C7.32273 7.88324 7.24829 8.25749 7.11435 8.59992H27.2561C27.1183 8.24764 27.0476 7.87095 27.0478 7.4907ZM1.88364 2.42988L1.70168 1.48707L3.28735 1.66119L3.40056 2.24806L1.88364 2.42988ZM8.33094 8.12087C8.2841 8.12172 8.23757 8.11287 8.19406 8.09483C8.15056 8.0768 8.11094 8.04994 8.07753 8.01582C8.04412 7.98171 8.01759 7.94102 7.99947 7.89613C7.98136 7.85124 7.97203 7.80306 7.97203 7.75439C7.97203 7.70571 7.98136 7.65753 7.99947 7.61264C8.01759 7.56775 8.04412 7.52707 8.07753 7.49295C8.11094 7.45884 8.15056 7.43198 8.19406 7.41394C8.23757 7.3959 8.2841 7.38705 8.33094 7.3879C8.42341 7.38958 8.51155 7.42893 8.57638 7.49747C8.64121 7.56602 8.67753 7.65828 8.67753 7.75439C8.67753 7.85049 8.64121 7.94275 8.57638 8.0113C8.51155 8.07985 8.42341 8.1192 8.33094 8.12087ZM9.59275 8.12087C9.54591 8.12172 9.49938 8.11287 9.45587 8.09483C9.41237 8.0768 9.37275 8.04994 9.33934 8.01582C9.30593 7.98171 9.2794 7.94102 9.26128 7.89613C9.24317 7.85124 9.23384 7.80306 9.23384 7.75439C9.23384 7.70571 9.24317 7.65753 9.26128 7.61264C9.2794 7.56775 9.30593 7.52707 9.33934 7.49295C9.37275 7.45884 9.41237 7.43198 9.45587 7.41394C9.49938 7.3959 9.54591 7.38705 9.59275 7.3879C9.68522 7.38958 9.77336 7.42893 9.83819 7.49747C9.90302 7.56602 9.93934 7.65828 9.93934 7.75439C9.93934 7.85049 9.90302 7.94275 9.83819 8.0113C9.77336 8.07985 9.68522 8.1192 9.59275 8.12087ZM14.0104 2.07528L13.6953 0.705771C14.1505 0.628311 14.5356 0.578419 14.8112 0.568597C15.0502 0.560989 15.2894 0.557491 15.5285 0.558105C16.413 0.558105 17.7357 0.593933 19.3538 0.661795C19.911 0.685122 22.0911 1.29398 24.6147 2.07439L25.0565 2.98337L14.2781 2.30867C14.2153 2.30475 14.1554 2.27995 14.1072 2.23792C14.059 2.1959 14.025 2.13887 14.0104 2.07528ZM17.3267 3.53877L14.8844 3.3978L14.6808 2.96072L17.693 3.17223L17.3267 3.53877ZM26.7192 3.08751L25.6166 3.01853L24.9895 2.1908C25.6505 2.39694 26.3105 2.60666 26.9695 2.81997L27.0877 2.85825L27.0641 2.89899C27.0286 2.96013 26.9778 3.01002 26.917 3.04325C26.8562 3.07648 26.7878 3.09179 26.7192 3.08751Z" fill="black"/>
<path d="M6.89919 7.49069C6.89919 6.10711 5.81591 4.98148 4.48439 4.98148C3.15286 4.98148 2.06947 6.107 2.06947 7.49069C2.06947 8.87426 3.15275 10 4.48428 10C5.8158 10 6.89919 8.87426 6.89919 7.49069ZM4.48439 9.37105C3.48649 9.37105 2.67465 8.52747 2.67465 7.49057C2.67465 6.45368 3.48649 5.6101 4.48439 5.6101C5.48228 5.6101 6.29412 6.45368 6.29412 7.49057C6.29402 8.52758 5.48228 9.37105 4.48439 9.37105Z" fill="black"/>
<path d="M4.48439 8.32779C4.92932 8.32779 5.29 7.95301 5.29 7.49069C5.29 7.02836 4.92932 6.65358 4.48439 6.65358C4.03946 6.65358 3.67877 7.02836 3.67877 7.49069C3.67877 7.95301 4.03946 8.32779 4.48439 8.32779Z" fill="black"/>
<path d="M32.3012 7.49069C32.3012 6.10711 31.2179 4.98148 29.8863 4.98148C28.5548 4.98148 27.4714 6.10711 27.4714 7.49069C27.4714 8.87426 28.5547 10 29.8863 10C31.218 10 32.3012 8.87426 32.3012 7.49069ZM29.8862 9.37105C28.8883 9.37105 28.0765 8.52747 28.0765 7.49057C28.0765 6.45368 28.8883 5.6101 29.8862 5.6101C30.8841 5.6101 31.696 6.45368 31.696 7.49057C31.696 8.52758 30.8842 9.37105 29.8862 9.37105Z" fill="black"/>
<path d="M29.8862 8.32779C30.3312 8.32779 30.6919 7.95301 30.6919 7.49069C30.6919 7.02836 30.3312 6.65358 29.8862 6.65358C29.4413 6.65358 29.0806 7.02836 29.0806 7.49069C29.0806 7.95301 29.4413 8.32779 29.8862 8.32779Z" fill="black"/>
</g>
</svg>
