<svg width="30" height="12" viewBox="0 0 30 12" fill="none" xmlns="http://www.w3.org/2000/svg">
<g opacity="0.6">
<path d="M0.318763 9.30526L1.67055 9.33846C1.6467 9.49303 1.63473 9.64913 1.63473 9.80546V10.0845H2.20331V9.80546C2.20331 8.3972 3.37059 7.25151 4.80539 7.25151C6.24019 7.25151 7.40748 8.3972 7.40748 9.80546V10.0845H7.97605V9.80546C7.97605 9.69999 7.97056 9.59573 7.96004 9.49286L21.5092 9.82546V10.0845H22.0778V9.80546C22.0778 8.3972 23.245 7.25151 24.6799 7.25151C26.1147 7.25151 27.282 8.3972 27.282 9.80546V10.0845H27.8506V9.98116L29.6425 10.0252C30.0926 10.0362 30.1313 8.52109 29.681 8.51002L29.6552 8.50937L29.9512 6.56501C29.9734 6.43405 29.9576 6.29959 29.9056 6.17703C29.8536 6.05447 29.7675 5.94876 29.6572 5.87199L29.1636 5.52888C29.1636 5.52888 28.4186 4.42672 28.1485 4.38338L21.7934 2.9301C21.6094 2.90062 21.4328 2.83691 21.2731 2.74241L18.1085 0.869755C17.1421 0.297841 16.0344 -0.00297977 14.9059 2.22507e-05L3.52306 0.0305294C3.50002 0.0306106 3.47728 0.0356591 3.45645 0.0453179L3.15813 0.183995C3.03058 0.243335 3.04177 0.424983 3.17566 0.46879C3.29412 0.507575 3.32103 0.660111 3.22267 0.735728L0.807643 2.59211C0.703937 2.67182 0.621413 2.77497 0.567109 2.89276C0.512805 3.01055 0.488333 3.13948 0.49578 3.26856L0.57936 4.7184L0.480523 4.78118C0.326443 4.87902 0.202829 5.01667 0.123268 5.17898C0.0437067 5.3413 0.0112787 5.522 0.0295478 5.70123L0.228075 7.8358C-0.0951597 8.08544 -0.0835039 9.2954 0.318763 9.30526ZM13.1709 4.44393L13.1833 4.13709L14.8853 4.20303L14.873 4.50987L13.1709 4.44393ZM5.80845 4.16657L5.82077 3.85973L7.5228 3.92568L7.51048 4.23252L5.80845 4.16657ZM5.42902 3.16495L5.63305 0.583006L11.7768 0.566543L12.003 3.42956L5.42902 3.16495ZM14.9227 0.55808C15.942 0.55812 16.942 0.831107 17.815 1.34764L20.426 2.89281L20.7477 3.49123C20.6996 3.57642 20.6284 3.64684 20.5419 3.69463C20.4555 3.74242 20.3572 3.76571 20.258 3.76189L12.8263 3.46277L12.3112 0.565148L14.9227 0.55808ZM3.57319 1.1751C3.66357 1.10579 3.73588 1.01639 3.78415 0.914276C3.83243 0.812157 3.85529 0.700241 3.85085 0.58775L5.0965 0.584401L4.64335 3.13333L2.49878 3.04702C2.39439 3.04299 2.29349 3.00909 2.20848 2.9495C2.12347 2.88991 2.05807 2.80723 2.02032 2.71162L1.91646 2.44859L3.57319 1.1751Z" fill="white"/>
<path d="M0.318763 9.30526L1.67055 9.33846C1.6467 9.49303 1.63473 9.64913 1.63473 9.80546V10.0845H2.20331V9.80546C2.20331 8.3972 3.37059 7.25151 4.80539 7.25151C6.24019 7.25151 7.40748 8.3972 7.40748 9.80546V10.0845H7.97605V9.80546C7.97605 9.69999 7.97056 9.59573 7.96004 9.49286L21.5092 9.82546V10.0845H22.0778V9.80546C22.0778 8.3972 23.245 7.25151 24.6799 7.25151C26.1147 7.25151 27.282 8.3972 27.282 9.80546V10.0845H27.8506V9.98116L29.6425 10.0252C30.0926 10.0362 30.1313 8.52109 29.681 8.51002L29.6552 8.50937L29.9512 6.56501C29.9734 6.43405 29.9576 6.29959 29.9056 6.17703C29.8536 6.05447 29.7675 5.94876 29.6572 5.87199L29.1636 5.52888C29.1636 5.52888 28.4186 4.42672 28.1485 4.38338L21.7934 2.9301C21.6094 2.90062 21.4328 2.83691 21.2731 2.74241L18.1085 0.869755C17.1421 0.297841 16.0344 -0.00297977 14.9059 2.22507e-05L3.52306 0.0305294C3.50002 0.0306106 3.47728 0.0356591 3.45645 0.0453179L3.15813 0.183995C3.03058 0.243335 3.04177 0.424983 3.17566 0.46879C3.29412 0.507575 3.32103 0.660111 3.22267 0.735728L0.807643 2.59211C0.703937 2.67182 0.621413 2.77497 0.567109 2.89276C0.512805 3.01055 0.488333 3.13948 0.49578 3.26856L0.57936 4.7184L0.480523 4.78118C0.326443 4.87902 0.202829 5.01667 0.123268 5.17898C0.0437067 5.3413 0.0112787 5.522 0.0295478 5.70123L0.228075 7.8358C-0.0951597 8.08544 -0.0835039 9.2954 0.318763 9.30526ZM13.1709 4.44393L13.1833 4.13709L14.8853 4.20303L14.873 4.50987L13.1709 4.44393ZM5.80845 4.16657L5.82077 3.85973L7.5228 3.92568L7.51048 4.23252L5.80845 4.16657ZM5.42902 3.16495L5.63305 0.583006L11.7768 0.566543L12.003 3.42956L5.42902 3.16495ZM14.9227 0.55808C15.942 0.55812 16.942 0.831107 17.815 1.34764L20.426 2.89281L20.7477 3.49123C20.6996 3.57642 20.6284 3.64684 20.5419 3.69463C20.4555 3.74242 20.3572 3.76571 20.258 3.76189L12.8263 3.46277L12.3112 0.565148L14.9227 0.55808ZM3.57319 1.1751C3.66357 1.10579 3.73588 1.01639 3.78415 0.914276C3.83243 0.812157 3.85529 0.700241 3.85085 0.58775L5.0965 0.584401L4.64335 3.13333L2.49878 3.04702C2.39439 3.04299 2.29349 3.00909 2.20848 2.9495C2.12347 2.88991 2.05807 2.80723 2.02032 2.71162L1.91646 2.44859L3.57319 1.1751Z" fill="black"/>
<path d="M4.8056 7.61097C3.6404 7.61097 2.68396 8.48554 2.57944 9.60231C2.57288 9.66986 2.56953 9.73767 2.56939 9.80553C2.56939 11.0174 3.57037 12 4.8055 12C6.04026 12 7.04114 11.0174 7.04114 9.80553C7.04114 9.73689 7.03754 9.66918 7.03138 9.60231C6.92695 8.48554 5.97061 7.61097 4.8056 7.61097ZM4.8056 11.2302C4.00504 11.2302 3.35384 10.591 3.35384 9.80544C3.35384 9.76386 3.35602 9.72052 3.36047 9.6729C3.42936 8.93608 4.05063 8.38072 4.8056 8.38072C5.56029 8.38072 6.18146 8.93617 6.25054 9.67272C6.2548 9.71922 6.25698 9.76284 6.25698 9.80544C6.25698 10.5911 5.60596 11.2302 4.8056 11.2302Z" fill="white"/>
<path d="M4.8056 7.61097C3.6404 7.61097 2.68396 8.48554 2.57944 9.60231C2.57288 9.66986 2.56953 9.73767 2.56939 9.80553C2.56939 11.0174 3.57037 12 4.8055 12C6.04026 12 7.04114 11.0174 7.04114 9.80553C7.04114 9.73689 7.03754 9.66918 7.03138 9.60231C6.92695 8.48554 5.97061 7.61097 4.8056 7.61097ZM4.8056 11.2302C4.00504 11.2302 3.35384 10.591 3.35384 9.80544C3.35384 9.76386 3.35602 9.72052 3.36047 9.6729C3.42936 8.93608 4.05063 8.38072 4.8056 8.38072C5.56029 8.38072 6.18146 8.93617 6.25054 9.67272C6.2548 9.71922 6.25698 9.76284 6.25698 9.80544C6.25698 10.5911 5.60596 11.2302 4.8056 11.2302Z" fill="black"/>
<path d="M4.8056 9.15047C4.63917 9.14956 4.47847 9.21012 4.35543 9.32012C4.23238 9.43012 4.15599 9.58151 4.14141 9.74424C4.13936 9.76458 4.13825 9.785 4.13809 9.80544C4.13809 10.1666 4.43754 10.4604 4.8056 10.4604C5.17337 10.4604 5.47263 10.1666 5.47263 9.80544C5.47263 9.78647 5.47159 9.76572 5.46951 9.74312C5.43785 9.40531 5.15243 9.15047 4.8056 9.15047ZM26.9159 9.80544C26.9159 9.7368 26.9124 9.66909 26.9061 9.60221C26.8015 8.48554 25.8452 7.61088 24.6802 7.61088C23.515 7.61088 22.5586 8.48545 22.4541 9.60221C22.4475 9.66977 22.4442 9.73758 22.444 9.80544C22.444 11.0174 23.445 11.9999 24.6801 11.9999C25.915 12 26.9159 11.0174 26.9159 9.80544ZM24.6802 11.2302C23.8797 11.2302 23.2285 10.591 23.2285 9.80544C23.2285 9.76386 23.2307 9.72052 23.2351 9.6729C23.304 8.93608 23.9253 8.38072 24.6802 8.38072C25.435 8.38072 26.0562 8.93617 26.1252 9.67272C26.1294 9.71922 26.1316 9.76284 26.1316 9.80544C26.1315 10.5911 25.4805 11.2302 24.6802 11.2302Z" fill="white"/>
<path d="M4.8056 9.15047C4.63917 9.14956 4.47847 9.21012 4.35543 9.32012C4.23238 9.43012 4.15599 9.58151 4.14141 9.74424C4.13936 9.76458 4.13825 9.785 4.13809 9.80544C4.13809 10.1666 4.43754 10.4604 4.8056 10.4604C5.17337 10.4604 5.47263 10.1666 5.47263 9.80544C5.47263 9.78647 5.47159 9.76572 5.46951 9.74312C5.43785 9.40531 5.15243 9.15047 4.8056 9.15047ZM26.9159 9.80544C26.9159 9.7368 26.9124 9.66909 26.9061 9.60221C26.8015 8.48554 25.8452 7.61088 24.6802 7.61088C23.515 7.61088 22.5586 8.48545 22.4541 9.60221C22.4475 9.66977 22.4442 9.73758 22.444 9.80544C22.444 11.0174 23.445 11.9999 24.6801 11.9999C25.915 12 26.9159 11.0174 26.9159 9.80544ZM24.6802 11.2302C23.8797 11.2302 23.2285 10.591 23.2285 9.80544C23.2285 9.76386 23.2307 9.72052 23.2351 9.6729C23.304 8.93608 23.9253 8.38072 24.6802 8.38072C25.435 8.38072 26.0562 8.93617 26.1252 9.67272C26.1294 9.71922 26.1316 9.76284 26.1316 9.80544C26.1315 10.5911 25.4805 11.2302 24.6802 11.2302Z" fill="black"/>
<path d="M25.3473 9.80544C25.3473 9.78647 25.3462 9.76572 25.3442 9.74312C25.3125 9.40522 25.0271 9.15047 24.6802 9.15047C24.5138 9.14956 24.3531 9.21012 24.2301 9.32012C24.107 9.43012 24.0306 9.58151 24.0161 9.74424C24.014 9.76458 24.0129 9.785 24.0127 9.80544C24.0127 10.1666 24.3122 10.4604 24.6802 10.4604C25.048 10.4604 25.3473 10.1666 25.3473 9.80544Z" fill="white"/>
<path d="M25.3473 9.80544C25.3473 9.78647 25.3462 9.76572 25.3442 9.74312C25.3125 9.40522 25.0271 9.15047 24.6802 9.15047C24.5138 9.14956 24.3531 9.21012 24.2301 9.32012C24.107 9.43012 24.0306 9.58151 24.0161 9.74424C24.014 9.76458 24.0129 9.785 24.0127 9.80544C24.0127 10.1666 24.3122 10.4604 24.6802 10.4604C25.048 10.4604 25.3473 10.1666 25.3473 9.80544Z" fill="black"/>
</g>
</svg>
